<svg xmlns="http://www.w3.org/2000/svg" xmlns:xlink="http://www.w3.org/1999/xlink" id="Layer_1" x="0" y="0" version="1.1" viewBox="0 0 24 24" style="enable-background:new 0 0 24 24" xml:space="preserve"><g><path style="fill:#414141" d="M14.3,2.3c-3.9-0.9-7.5,0.5-9.7,3.1l7.5,0v0c0,0,0,0,0,0c3.7,0,6.7,3,6.7,6.6c0,3.7-3,6.6-6.7,6.6 c0,0,0,0,0,0l-7.5,0C6.4,20.7,9,22,12,22c6.1,0,11-5.5,9.8-11.9C21.1,6.3,18.1,3.1,14.3,2.3z"/><polygon style="fill:#0072bc" points="15.8 12 10.8 7 10.8 10.3 2 10.3 2 13.7 10.8 13.7 10.8 17"/></g></svg>