<svg xmlns="http://www.w3.org/2000/svg" xmlns:xlink="http://www.w3.org/1999/xlink" width="1920" height="1080" preserveAspectRatio="none" version="1.1" viewBox="0 0 1920 1080"><g fill="none" clip-path="url(&quot;#SvgjsClipPath1039&quot;)"><circle cx="129.17" cy="133.37" r="180" stroke="#0d51d9" stroke-opacity=".25" stroke-width="2"/><circle cx="866.4" cy="819.73" r="180" stroke="#0d51d9" stroke-opacity=".25" stroke-width="2"/><circle cx="1209.08" cy="856.22" r="166.485" stroke="#0d51d9" stroke-opacity=".25" stroke-width="2"/><circle cx="1455.14" cy="182.11" r="319.96" stroke="#0d51d9" stroke-opacity=".25" stroke-width="2"/><circle cx="746.69" cy="499.07" r="359.475" stroke="#0d51d9" stroke-opacity=".25" stroke-width="2"/><circle cx="1393.64" cy="84.76" r="176.48" stroke="#0d51d9" stroke-opacity=".25" stroke-width="2"/><circle cx="1851.69" cy="183.43" r="100.755" stroke="#0d51d9" stroke-opacity=".25" stroke-width="2"/><circle cx="1758.65" cy="829.71" r="330.61" stroke="#0d51d9" stroke-opacity=".25" stroke-width="2"/><circle cx="604.37" cy="31.19" r="221.495" stroke="#0d51d9" stroke-opacity=".25" stroke-width="2"/><circle cx="1110" cy="866.11" r="127.345" stroke="#0d51d9" stroke-opacity=".25" stroke-width="2"/><circle cx="1209.08" cy="714.12" r="143.26" stroke="#0d51d9" stroke-opacity=".25" stroke-width="2"/><circle cx="1687.2" cy="396.48" r="109.325" stroke="#0d51d9" stroke-opacity=".25" stroke-width="2"/><circle cx="1469.76" cy="840.69" r="229.51" stroke="#0d51d9" stroke-opacity=".25" stroke-width="2"/><circle cx="1090.59" cy="577.16" r="162.63" stroke="#0d51d9" stroke-opacity=".25" stroke-width="2"/><circle cx="66.93" cy="481.38" r="222.61" stroke="#0d51d9" stroke-opacity=".25" stroke-width="2"/><circle cx="228.28" cy="23.36" r="192.95" stroke="#0d51d9" stroke-opacity=".25" stroke-width="2"/><circle cx="1453.03" cy="791.48" r="304.245" stroke="#0d51d9" stroke-opacity=".25" stroke-width="2"/><circle cx="298.58" cy="1026.17" r="100.16" stroke="#0d51d9" stroke-opacity=".25" stroke-width="2"/><circle cx="540.42" cy="1003.91" r="98.92" stroke="#0d51d9" stroke-opacity=".25" stroke-width="2"/><circle cx="1046.82" cy="438.03" r="94.615" stroke="#0d51d9" stroke-opacity=".25" stroke-width="2"/><circle cx="106.75" cy="163.79" r="159.25" stroke="#0d51d9" stroke-opacity=".25" stroke-width="2"/><circle cx="769.03" cy="319.36" r="245.675" stroke="#0d51d9" stroke-opacity=".25" stroke-width="2"/><circle cx="690.45" cy="874.83" r="178.39" stroke="#0d51d9" stroke-opacity=".25" stroke-width="2"/></g><defs><clipPath id="SvgjsClipPath1039"><rect width="1920" height="1080" x="0" y="0"/></clipPath></defs></svg>